# This file uses centimeters as units for non-parametric coordinates.

mtllib Ball Cup.mtl
g default
v 0.320673 -0.150000 -0.104193
v 0.272781 -0.150000 -0.198187
v 0.198187 -0.150000 -0.272780
v 0.104193 -0.150000 -0.320673
v 0.000000 -0.150000 -0.337175
v -0.104193 -0.150000 -0.320673
v -0.198187 -0.150000 -0.272780
v -0.272780 -0.150000 -0.198187
v -0.320672 -0.150000 -0.104193
v -0.337175 -0.150000 -0.000000
v -0.320672 -0.150000 0.104193
v -0.272780 -0.150000 0.198186
v -0.198186 -0.150000 0.272780
v -0.104193 -0.150000 0.320672
v 0.000000 -0.150000 0.337175
v 0.104193 -0.150000 0.320672
v 0.198186 -0.150000 0.272780
v 0.272780 -0.150000 0.198186
v 0.320672 -0.150000 0.104193
v 0.337175 -0.150000 -0.000000
v 0.641345 -0.150000 -0.208386
v 0.545561 -0.150000 -0.396373
v 0.396373 -0.150000 -0.545561
v 0.208386 -0.150000 -0.641345
v 0.000000 -0.150000 -0.674350
v -0.208386 -0.150000 -0.641345
v -0.396373 -0.150000 -0.545561
v -0.545560 -0.150000 -0.396373
v -0.641345 -0.150000 -0.208386
v -0.674350 -0.150000 -0.000000
v -0.641345 -0.150000 0.208385
v -0.545560 -0.150000 0.396373
v -0.396373 -0.150000 0.545561
v -0.208386 -0.150000 0.641345
v 0.000000 -0.150000 0.674350
v 0.208386 -0.150000 0.641345
v 0.396373 -0.150000 0.545561
v 0.545561 -0.150000 0.396373
v 0.641345 -0.150000 0.208385
v 0.674350 -0.150000 -0.000000
v 0.962018 -0.150000 -0.312579
v 0.818341 -0.150000 -0.594560
v 0.594560 -0.150000 -0.818341
v 0.312578 -0.150000 -0.962018
v 0.000000 -0.150000 -1.011525
v -0.312578 -0.150000 -0.962018
v -0.594559 -0.150000 -0.818341
v -0.818341 -0.150000 -0.594560
v -0.962017 -0.150000 -0.312579
v -1.011525 -0.150000 -0.000000
v -0.962017 -0.150000 0.312578
v -0.818341 -0.150000 0.594559
v -0.594559 -0.150000 0.818341
v -0.312578 -0.150000 0.962017
v 0.000000 -0.150000 1.011525
v 0.312578 -0.150000 0.962017
v 0.594559 -0.150000 0.818341
v 0.818341 -0.150000 0.594559
v 0.962017 -0.150000 0.312578
v 1.011525 -0.150000 -0.000000
v 1.282691 -0.150000 -0.416771
v 1.091122 -0.150000 -0.792746
v 0.792746 -0.150000 -1.091122
v 0.416771 -0.150000 -1.282690
v 0.000000 -0.150000 -1.348701
v -0.416771 -0.150000 -1.282690
v -0.792746 -0.150000 -1.091121
v -1.091122 -0.150000 -0.792746
v -1.282690 -0.150000 -0.416771
v -1.348700 -0.150000 -0.000000
v -1.282690 -0.150000 0.416771
v -1.091121 -0.150000 0.792746
v -0.792746 -0.150000 1.091121
v -0.416771 -0.150000 1.282690
v 0.000000 -0.150000 1.348700
v 0.416771 -0.150000 1.282690
v 0.792746 -0.150000 1.091121
v 1.091121 -0.150000 0.792746
v 1.282690 -0.150000 0.416771
v 1.348700 -0.150000 -0.000000
v 0.951057 0.391242 -0.309017
v 0.809018 0.391242 -0.587786
v 0.587786 0.391242 -0.809017
v 0.309017 0.391242 -0.951057
v 0.000000 0.391242 -1.000000
v -0.309017 0.391242 -0.951057
v -0.587785 0.391242 -0.809017
v -0.809017 0.391242 -0.587785
v -0.951057 0.391242 -0.309017
v -1.000000 0.391242 0.000000
v -0.951057 0.391242 0.309017
v -0.809017 0.391242 0.587785
v -0.587785 0.391242 0.809017
v -0.309017 0.391242 0.951057
v -0.000000 0.391242 1.000000
v 0.309017 0.391242 0.951057
v 0.587785 0.391242 0.809017
v 0.809017 0.391242 0.587785
v 0.951057 0.391242 0.309017
v 1.000000 0.391242 0.000000
v 0.713293 -0.130827 -0.231763
v 0.606763 -0.130827 -0.440839
v 0.440839 -0.130827 -0.606763
v 0.231763 -0.130827 -0.713293
v 0.000000 -0.130827 -0.750000
v -0.231763 -0.130827 -0.713293
v -0.440839 -0.130827 -0.606763
v -0.606763 -0.130827 -0.440839
v -0.713293 -0.130827 -0.231763
v -0.750000 -0.130827 0.000000
v -0.713293 -0.130827 0.231763
v -0.606763 -0.130827 0.440839
v -0.440839 -0.130827 0.606763
v -0.231763 -0.130827 0.713292
v -0.000000 -0.130827 0.750000
v 0.231763 -0.130827 0.713292
v 0.440839 -0.130827 0.606763
v 0.606763 -0.130827 0.440839
v 0.713292 -0.130827 0.231763
v 0.750000 -0.130827 0.000000
v 0.475529 -0.130827 -0.154509
v 0.404509 -0.130827 -0.293893
v 0.293893 -0.130827 -0.404509
v 0.154509 -0.130827 -0.475529
v 0.000000 -0.130827 -0.500000
v -0.154509 -0.130827 -0.475528
v -0.293893 -0.130827 -0.404509
v -0.404509 -0.130827 -0.293893
v -0.475528 -0.130827 -0.154509
v -0.500000 -0.130827 0.000000
v -0.475528 -0.130827 0.154509
v -0.404509 -0.130827 0.293893
v -0.293893 -0.130827 0.404509
v -0.154509 -0.130827 0.475528
v -0.000000 -0.130827 0.500000
v 0.154508 -0.130827 0.475528
v 0.293893 -0.130827 0.404509
v 0.404509 -0.130827 0.293893
v 0.475528 -0.130827 0.154509
v 0.500000 -0.130827 0.000000
v 0.237764 -0.130827 -0.077254
v 0.202254 -0.130827 -0.146946
v 0.146946 -0.130827 -0.202254
v 0.077254 -0.130827 -0.237764
v 0.000000 -0.130827 -0.250000
v -0.077254 -0.130827 -0.237764
v -0.146946 -0.130827 -0.202254
v -0.202254 -0.130827 -0.146946
v -0.237764 -0.130827 -0.077254
v -0.250000 -0.130827 0.000000
v -0.237764 -0.130827 0.077254
v -0.202254 -0.130827 0.146946
v -0.146946 -0.130827 0.202254
v -0.077254 -0.130827 0.237764
v -0.000000 -0.130827 0.250000
v 0.077254 -0.130827 0.237764
v 0.146946 -0.130827 0.202254
v 0.202254 -0.130827 0.146946
v 0.237764 -0.130827 0.077254
v 0.250000 -0.130827 0.000000
v 0.000000 -0.150000 -0.000000
v 0.000000 -0.130827 0.000000
vt 0.537151 0.144179
vt 0.531602 0.133290
vt 0.522960 0.124648
vt 0.512071 0.119099
vt 0.500000 0.117187
vt 0.487929 0.119099
vt 0.477040 0.124648
vt 0.468398 0.133290
vt 0.462849 0.144179
vt 0.460938 0.156250
vt 0.462849 0.168321
vt 0.468398 0.179210
vt 0.477040 0.187852
vt 0.487929 0.193401
vt 0.500000 0.195313
vt 0.512071 0.193401
vt 0.522960 0.187852
vt 0.531602 0.179210
vt 0.537151 0.168321
vt 0.539063 0.156250
vt 0.574301 0.132108
vt 0.563205 0.110329
vt 0.545921 0.093046
vt 0.524142 0.081949
vt 0.500000 0.078125
vt 0.475858 0.081949
vt 0.454079 0.093046
vt 0.436796 0.110329
vt 0.425699 0.132108
vt 0.421875 0.156250
vt 0.425699 0.180392
vt 0.436796 0.202171
vt 0.454079 0.219454
vt 0.475858 0.230551
vt 0.500000 0.234375
vt 0.524142 0.230551
vt 0.545921 0.219454
vt 0.563204 0.202171
vt 0.574301 0.180392
vt 0.578125 0.156250
vt 0.611452 0.120037
vt 0.594807 0.087369
vt 0.568881 0.061443
vt 0.536213 0.044798
vt 0.500000 0.039062
vt 0.463787 0.044798
vt 0.431119 0.061443
vt 0.405193 0.087369
vt 0.388548 0.120037
vt 0.382812 0.156250
vt 0.388548 0.192463
vt 0.405193 0.225131
vt 0.431119 0.251057
vt 0.463787 0.267702
vt 0.500000 0.273438
vt 0.536213 0.267702
vt 0.568881 0.251057
vt 0.594807 0.225131
vt 0.611452 0.192463
vt 0.617188 0.156250
vt 0.648603 0.107966
vt 0.626409 0.064408
vt 0.591842 0.029841
vt 0.548284 0.007647
vt 0.500000 -0.000000
vt 0.451716 0.007647
vt 0.408159 0.029841
vt 0.373591 0.064409
vt 0.351397 0.107966
vt 0.343750 0.156250
vt 0.351397 0.204534
vt 0.373591 0.248091
vt 0.408159 0.282659
vt 0.451716 0.304853
vt 0.500000 0.312500
vt 0.548284 0.304853
vt 0.591841 0.282659
vt 0.626409 0.248091
vt 0.648603 0.204534
vt 0.656250 0.156250
vt 0.375000 0.312500
vt 0.387500 0.312500
vt 0.400000 0.312500
vt 0.412500 0.312500
vt 0.425000 0.312500
vt 0.437500 0.312500
vt 0.450000 0.312500
vt 0.462500 0.312500
vt 0.475000 0.312500
vt 0.487500 0.312500
vt 0.500000 0.312500
vt 0.512500 0.312500
vt 0.525000 0.312500
vt 0.537500 0.312500
vt 0.550000 0.312500
vt 0.562500 0.312500
vt 0.575000 0.312500
vt 0.587500 0.312500
vt 0.600000 0.312500
vt 0.612500 0.312500
vt 0.625000 0.312500
vt 0.375000 0.688440
vt 0.387500 0.688440
vt 0.400000 0.688440
vt 0.412500 0.688440
vt 0.425000 0.688440
vt 0.437500 0.688440
vt 0.450000 0.688440
vt 0.462500 0.688440
vt 0.475000 0.688440
vt 0.487500 0.688440
vt 0.500000 0.688440
vt 0.512500 0.688440
vt 0.525000 0.688440
vt 0.537500 0.688440
vt 0.550000 0.688440
vt 0.562500 0.688440
vt 0.575000 0.688440
vt 0.587500 0.688440
vt 0.600000 0.688440
vt 0.612500 0.688440
vt 0.625000 0.688440
vt 0.648603 0.795466
vt 0.626409 0.751908
vt 0.591842 0.717341
vt 0.548284 0.695147
vt 0.500000 0.687500
vt 0.451716 0.695147
vt 0.408159 0.717341
vt 0.373591 0.751909
vt 0.351397 0.795466
vt 0.343750 0.843750
vt 0.351397 0.892034
vt 0.373591 0.935591
vt 0.408159 0.970159
vt 0.451716 0.992353
vt 0.500000 1.000000
vt 0.548284 0.992353
vt 0.591841 0.970159
vt 0.626409 0.935591
vt 0.648603 0.892034
vt 0.656250 0.843750
vt 0.611452 0.807537
vt 0.594807 0.774869
vt 0.568881 0.748943
vt 0.536213 0.732298
vt 0.500000 0.726562
vt 0.463787 0.732298
vt 0.431119 0.748943
vt 0.405193 0.774869
vt 0.388548 0.807537
vt 0.382812 0.843750
vt 0.388548 0.879963
vt 0.405193 0.912631
vt 0.431119 0.938557
vt 0.463787 0.955202
vt 0.500000 0.960938
vt 0.536213 0.955202
vt 0.568881 0.938557
vt 0.594807 0.912631
vt 0.611452 0.879963
vt 0.617188 0.843750
vt 0.574301 0.819608
vt 0.563205 0.797829
vt 0.545921 0.780545
vt 0.524142 0.769449
vt 0.500000 0.765625
vt 0.475858 0.769449
vt 0.454079 0.780546
vt 0.436796 0.797829
vt 0.425699 0.819608
vt 0.421875 0.843750
vt 0.425699 0.867892
vt 0.436796 0.889671
vt 0.454079 0.906954
vt 0.475858 0.918051
vt 0.500000 0.921875
vt 0.524142 0.918051
vt 0.545921 0.906954
vt 0.563204 0.889671
vt 0.574301 0.867892
vt 0.578125 0.843750
vt 0.537151 0.831679
vt 0.531602 0.820790
vt 0.522960 0.812148
vt 0.512071 0.806599
vt 0.500000 0.804688
vt 0.487929 0.806599
vt 0.477040 0.812148
vt 0.468398 0.820790
vt 0.462849 0.831679
vt 0.460938 0.843750
vt 0.462849 0.855821
vt 0.468398 0.866710
vt 0.477040 0.875352
vt 0.487929 0.880901
vt 0.500000 0.882813
vt 0.512071 0.880901
vt 0.522960 0.875352
vt 0.531602 0.866710
vt 0.537151 0.855821
vt 0.539063 0.843750
vt 0.500000 0.150000
vt 0.500000 0.837500
vn 0.000000 -1.000000 0.000000
vn 0.000000 -1.000000 -0.000000
vn 0.000000 -1.000000 0.000000
vn 0.000000 -1.000000 0.000000
vn 0.000000 -1.000000 -0.000000
vn 0.000000 -1.000000 0.000000
vn 0.000000 -1.000000 0.000000
vn 0.000000 -1.000000 0.000000
vn 0.000000 -1.000000 0.000000
vn 0.000000 -1.000000 -0.000000
vn 0.000000 -1.000000 0.000000
vn 0.000000 -1.000000 -0.000000
vn 0.000000 -1.000000 0.000000
vn 0.000000 -1.000000 -0.000000
vn 0.000000 -1.000000 0.000000
vn 0.000000 -1.000000 0.000000
vn 0.000000 -1.000000 0.000000
vn 0.000000 -1.000000 0.000000
vn 0.000000 -1.000000 0.000000
vn 0.000000 -1.000000 0.000000
vn 0.000000 -1.000000 0.000000
vn 0.000000 -1.000000 0.000000
vn 0.000000 -1.000000 -0.000000
vn 0.000000 -1.000000 0.000000
vn 0.000000 -1.000000 -0.000000
vn 0.000000 -1.000000 0.000000
vn 0.000000 -1.000000 0.000000
vn 0.000000 -1.000000 0.000000
vn 0.000000 -1.000000 0.000000
vn 0.000000 -1.000000 0.000000
vn 0.000000 -1.000000 -0.000000
vn 0.000000 -1.000000 -0.000000
vn 0.000000 -1.000000 -0.000000
vn 0.000000 -1.000000 -0.000000
vn 0.000000 -1.000000 0.000000
vn 0.000000 -1.000000 0.000000
vn 0.000000 -1.000000 0.000000
vn 0.000000 -1.000000 0.000000
vn 0.000000 -1.000000 0.000000
vn 0.000000 -1.000000 0.000000
vn 0.000000 -1.000000 0.000000
vn 0.000000 -1.000000 0.000000
vn 0.000000 -1.000000 0.000000
vn 0.000000 -1.000000 0.000000
vn 0.000000 -1.000000 -0.000000
vn 0.000000 -1.000000 -0.000000
vn 0.000000 -1.000000 -0.000000
vn 0.000000 -1.000000 0.000000
vn 0.000000 -1.000000 0.000000
vn 0.000000 -1.000000 0.000000
vn 0.000000 -1.000000 0.000000
vn 0.000000 -1.000000 0.000000
vn 0.000000 -1.000000 0.000000
vn 0.000000 -1.000000 0.000000
vn 0.000000 -1.000000 0.000000
vn 0.000000 -1.000000 0.000000
vn 0.000000 -1.000000 -0.000000
vn 0.000000 -1.000000 0.000000
vn 0.000000 -1.000000 0.000000
vn 0.000000 -1.000000 0.000000
vn 0.000000 -1.000000 0.000000
vn 0.000000 -1.000000 0.000000
vn 0.000000 -1.000000 0.000000
vn 0.000000 -1.000000 0.000000
vn 0.000000 -1.000000 0.000000
vn 0.000000 -1.000000 0.000000
vn 0.000000 -1.000000 0.000000
vn 0.000000 -1.000000 0.000000
vn 0.000000 -1.000000 0.000000
vn 0.000000 -1.000000 0.000000
vn 0.000000 -1.000000 0.000000
vn 0.000000 -1.000000 0.000000
vn 0.000000 -1.000000 0.000000
vn 0.000000 -1.000000 0.000000
vn 0.000000 -1.000000 0.000000
vn 0.000000 -1.000000 0.000000
vn 0.000000 -1.000000 0.000000
vn 0.000000 -1.000000 0.000000
vn 0.000000 -1.000000 0.000000
vn 0.000000 -1.000000 0.000000
vn 0.799498 0.541591 -0.259772
vn 0.680093 0.541592 -0.494117
vn 0.680093 0.541592 -0.494117
vn 0.799498 0.541591 -0.259772
vn 0.494117 0.541592 -0.680094
vn 0.494117 0.541592 -0.680094
vn 0.259773 0.541592 -0.799498
vn 0.259772 0.541591 -0.799498
vn -0.000000 0.541591 -0.840642
vn -0.000000 0.541591 -0.840642
vn -0.259773 0.541591 -0.799498
vn -0.259773 0.541591 -0.799498
vn -0.494117 0.541591 -0.680094
vn -0.494117 0.541591 -0.680094
vn -0.680094 0.541591 -0.494117
vn -0.680094 0.541591 -0.494117
vn -0.799498 0.541591 -0.259772
vn -0.799498 0.541591 -0.259772
vn -0.840642 0.541591 0.000000
vn -0.840642 0.541591 0.000000
vn -0.799498 0.541591 0.259773
vn -0.799498 0.541591 0.259773
vn -0.680094 0.541591 0.494117
vn -0.680094 0.541591 0.494117
vn -0.494117 0.541591 0.680094
vn -0.494117 0.541591 0.680094
vn -0.259773 0.541591 0.799498
vn -0.259773 0.541591 0.799498
vn 0.000000 0.541591 0.840642
vn 0.000000 0.541591 0.840642
vn 0.259773 0.541591 0.799498
vn 0.259773 0.541591 0.799498
vn 0.494117 0.541591 0.680094
vn 0.494117 0.541591 0.680094
vn 0.680094 0.541591 0.494117
vn 0.680094 0.541591 0.494117
vn 0.799498 0.541591 0.259772
vn 0.799498 0.541591 0.259772
vn 0.840642 0.541591 0.000001
vn 0.840642 0.541591 0.000001
vn -0.857779 0.431899 0.278708
vn -0.729670 0.431898 0.530137
vn -0.636512 0.617243 0.462453
vn -0.748266 0.617243 0.243125
vn -0.530137 0.431898 0.729671
vn -0.462453 0.617243 0.636513
vn -0.278709 0.431898 0.857779
vn -0.243126 0.617243 0.748266
vn 0.000000 0.431898 0.901922
vn 0.000000 0.617243 0.786773
vn 0.278709 0.431898 0.857779
vn 0.243126 0.617243 0.748265
vn 0.530137 0.431898 0.729670
vn 0.462454 0.617243 0.636513
vn 0.729671 0.431898 0.530136
vn 0.636513 0.617243 0.462453
vn 0.857779 0.431898 0.278709
vn 0.748266 0.617243 0.243126
vn 0.901922 0.431898 0.000000
vn 0.786773 0.617243 0.000000
vn 0.857779 0.431898 -0.278709
vn 0.748266 0.617243 -0.243126
vn 0.729670 0.431898 -0.530137
vn 0.636513 0.617243 -0.462454
vn 0.530137 0.431898 -0.729671
vn 0.462453 0.617243 -0.636513
vn 0.278709 0.431898 -0.857779
vn 0.243126 0.617243 -0.748266
vn 0.000000 0.431898 -0.901922
vn 0.000000 0.617243 -0.786773
vn -0.278709 0.431898 -0.857779
vn -0.243126 0.617243 -0.748266
vn -0.530137 0.431898 -0.729670
vn -0.462454 0.617242 -0.636513
vn -0.729671 0.431898 -0.530137
vn -0.636513 0.617242 -0.462454
vn -0.857779 0.431898 -0.278709
vn -0.748266 0.617242 -0.243126
vn -0.901922 0.431898 -0.000001
vn -0.786773 0.617243 -0.000001
vn 0.000000 1.000000 -0.000000
vn 0.000000 1.000000 -0.000000
vn 0.000000 1.000000 0.000000
vn 0.000000 1.000000 0.000000
vn 0.000000 1.000000 0.000000
vn 0.000000 1.000000 -0.000000
vn 0.000000 1.000000 0.000000
vn 0.000000 1.000000 -0.000000
vn 0.000000 1.000000 -0.000000
vn 0.000000 1.000000 -0.000000
vn 0.000000 1.000000 0.000000
vn 0.000000 1.000000 0.000000
vn 0.000000 1.000000 0.000000
vn 0.000000 1.000000 -0.000000
vn 0.000000 1.000000 0.000000
vn 0.000000 1.000000 0.000000
vn 0.000000 1.000000 0.000000
vn 0.000000 1.000000 -0.000000
vn 0.000000 1.000000 -0.000000
vn 0.000000 1.000000 -0.000000
vn 0.000000 1.000000 0.000000
vn 0.000000 1.000000 0.000000
vn 0.000000 1.000000 0.000000
vn 0.000000 1.000000 0.000000
vn 0.000000 1.000000 0.000000
vn 0.000000 1.000000 -0.000000
vn 0.000000 1.000000 -0.000000
vn 0.000000 1.000000 0.000000
vn 0.000000 1.000000 -0.000000
vn 0.000000 1.000000 -0.000000
vn 0.000000 1.000000 0.000000
vn 0.000000 1.000000 0.000000
vn 0.000000 1.000000 -0.000000
vn 0.000000 1.000000 -0.000000
vn 0.000000 1.000000 -0.000000
vn 0.000000 1.000000 0.000000
vn 0.000000 1.000000 0.000000
vn 0.000000 1.000000 0.000000
vn 0.000000 1.000000 0.000000
vn 0.000000 1.000000 0.000000
vn 0.000000 -1.000000 -0.000000
vn 0.000000 1.000000 -0.000000
s 1
g pCylinder1
usemtl initialShadingGroup
f 1/1/1 2/2/2 22/22/3 21/21/4
f 2/2/2 3/3/5 23/23/6 22/22/3
f 3/3/5 4/4/7 24/24/8 23/23/6
f 4/4/7 5/5/9 25/25/10 24/24/8
f 5/5/9 6/6/11 26/26/12 25/25/10
f 6/6/11 7/7/13 27/27/14 26/26/12
f 7/7/13 8/8/15 28/28/16 27/27/14
f 8/8/15 9/9/17 29/29/18 28/28/16
f 9/9/17 10/10/19 30/30/20 29/29/18
f 10/10/19 11/11/21 31/31/22 30/30/20
f 11/11/21 12/12/23 32/32/24 31/31/22
f 12/12/23 13/13/25 33/33/26 32/32/24
f 13/13/25 14/14/27 34/34/28 33/33/26
f 14/14/27 15/15/29 35/35/30 34/34/28
f 15/15/29 16/16/31 36/36/32 35/35/30
f 16/16/31 17/17/33 37/37/34 36/36/32
f 17/17/33 18/18/35 38/38/36 37/37/34
f 18/18/35 19/19/37 39/39/38 38/38/36
f 19/19/37 20/20/39 40/40/40 39/39/38
f 20/20/39 1/1/1 21/21/4 40/40/40
f 21/21/4 22/22/3 42/42/41 41/41/42
f 22/22/3 23/23/6 43/43/43 42/42/41
f 23/23/6 24/24/8 44/44/44 43/43/43
f 24/24/8 25/25/10 45/45/45 44/44/44
f 25/25/10 26/26/12 46/46/46 45/45/45
f 26/26/12 27/27/14 47/47/47 46/46/46
f 27/27/14 28/28/16 48/48/48 47/47/47
f 28/28/16 29/29/18 49/49/49 48/48/48
f 29/29/18 30/30/20 50/50/50 49/49/49
f 30/30/20 31/31/22 51/51/51 50/50/50
f 31/31/22 32/32/24 52/52/52 51/51/51
f 32/32/24 33/33/26 53/53/53 52/52/52
f 33/33/26 34/34/28 54/54/54 53/53/53
f 34/34/28 35/35/30 55/55/55 54/54/54
f 35/35/30 36/36/32 56/56/56 55/55/55
f 36/36/32 37/37/34 57/57/57 56/56/56
f 37/37/34 38/38/36 58/58/58 57/57/57
f 38/38/36 39/39/38 59/59/59 58/58/58
f 39/39/38 40/40/40 60/60/60 59/59/59
f 40/40/40 21/21/4 41/41/42 60/60/60
f 41/41/42 42/42/41 62/62/61 61/61/62
f 42/42/41 43/43/43 63/63/63 62/62/61
f 43/43/43 44/44/44 64/64/64 63/63/63
f 44/44/44 45/45/45 65/65/65 64/64/64
f 45/45/45 46/46/46 66/66/66 65/65/65
f 46/46/46 47/47/47 67/67/67 66/66/66
f 47/47/47 48/48/48 68/68/68 67/67/67
f 48/48/48 49/49/49 69/69/69 68/68/68
f 49/49/49 50/50/50 70/70/70 69/69/69
f 50/50/50 51/51/51 71/71/71 70/70/70
f 51/51/51 52/52/52 72/72/72 71/71/71
f 52/52/52 53/53/53 73/73/73 72/72/72
f 53/53/53 54/54/54 74/74/74 73/73/73
f 54/54/54 55/55/55 75/75/75 74/74/74
f 55/55/55 56/56/56 76/76/76 75/75/75
f 56/56/56 57/57/57 77/77/77 76/76/76
f 57/57/57 58/58/58 78/78/78 77/77/77
f 58/58/58 59/59/59 79/79/79 78/78/78
f 59/59/59 60/60/60 80/80/80 79/79/79
f 60/60/60 41/41/42 61/61/62 80/80/80
s 2
f 61/81/81 62/82/82 82/103/83 81/102/84
f 62/82/82 63/83/85 83/104/86 82/103/83
f 63/83/85 64/84/87 84/105/88 83/104/86
f 64/84/87 65/85/89 85/106/90 84/105/88
f 65/85/89 66/86/91 86/107/92 85/106/90
f 66/86/91 67/87/93 87/108/94 86/107/92
f 67/87/93 68/88/95 88/109/96 87/108/94
f 68/88/95 69/89/97 89/110/98 88/109/96
f 69/89/97 70/90/99 90/111/100 89/110/98
f 70/90/99 71/91/101 91/112/102 90/111/100
f 71/91/101 72/92/103 92/113/104 91/112/102
f 72/92/103 73/93/105 93/114/106 92/113/104
f 73/93/105 74/94/107 94/115/108 93/114/106
f 74/94/107 75/95/109 95/116/110 94/115/108
f 75/95/109 76/96/111 96/117/112 95/116/110
f 76/96/111 77/97/113 97/118/114 96/117/112
f 77/97/113 78/98/115 98/119/116 97/118/114
f 78/98/115 79/99/117 99/120/118 98/119/116
f 79/99/117 80/100/119 100/121/120 99/120/118
f 80/100/119 61/101/81 81/122/84 100/121/120
s 3
f 81/141/121 82/140/122 102/160/123 101/161/124
f 82/140/122 83/139/125 103/159/126 102/160/123
f 83/139/125 84/138/127 104/158/128 103/159/126
f 84/138/127 85/137/129 105/157/130 104/158/128
f 85/137/129 86/136/131 106/156/132 105/157/130
f 86/136/131 87/135/133 107/155/134 106/156/132
f 87/135/133 88/134/135 108/154/136 107/155/134
f 88/134/135 89/133/137 109/153/138 108/154/136
f 89/133/137 90/132/139 110/152/140 109/153/138
f 90/132/139 91/131/141 111/151/142 110/152/140
f 91/131/141 92/130/143 112/150/144 111/151/142
f 92/130/143 93/129/145 113/149/146 112/150/144
f 93/129/145 94/128/147 114/148/148 113/149/146
f 94/128/147 95/127/149 115/147/150 114/148/148
f 95/127/149 96/126/151 116/146/152 115/147/150
f 96/126/151 97/125/153 117/145/154 116/146/152
f 97/125/153 98/124/155 118/144/156 117/145/154
f 98/124/155 99/123/157 119/143/158 118/144/156
f 99/123/157 100/142/159 120/162/160 119/143/158
f 100/142/159 81/141/121 101/161/124 120/162/160
f 101/161/124 102/160/123 122/180/161 121/181/162
f 102/160/123 103/159/126 123/179/163 122/180/161
f 103/159/126 104/158/128 124/178/164 123/179/163
f 104/158/128 105/157/130 125/177/165 124/178/164
f 105/157/130 106/156/132 126/176/166 125/177/165
f 106/156/132 107/155/134 127/175/167 126/176/166
f 107/155/134 108/154/136 128/174/168 127/175/167
f 108/154/136 109/153/138 129/173/169 128/174/168
f 109/153/138 110/152/140 130/172/170 129/173/169
f 110/152/140 111/151/142 131/171/171 130/172/170
f 111/151/142 112/150/144 132/170/172 131/171/171
f 112/150/144 113/149/146 133/169/173 132/170/172
f 113/149/146 114/148/148 134/168/174 133/169/173
f 114/148/148 115/147/150 135/167/175 134/168/174
f 115/147/150 116/146/152 136/166/176 135/167/175
f 116/146/152 117/145/154 137/165/177 136/166/176
f 117/145/154 118/144/156 138/164/178 137/165/177
f 118/144/156 119/143/158 139/163/179 138/164/178
f 119/143/158 120/162/160 140/182/180 139/163/179
f 120/162/160 101/161/124 121/181/162 140/182/180
f 121/181/162 122/180/161 142/200/181 141/201/182
f 122/180/161 123/179/163 143/199/183 142/200/181
f 123/179/163 124/178/164 144/198/184 143/199/183
f 124/178/164 125/177/165 145/197/185 144/198/184
f 125/177/165 126/176/166 146/196/186 145/197/185
f 126/176/166 127/175/167 147/195/187 146/196/186
f 127/175/167 128/174/168 148/194/188 147/195/187
f 128/174/168 129/173/169 149/193/189 148/194/188
f 129/173/169 130/172/170 150/192/190 149/193/189
f 130/172/170 131/171/171 151/191/191 150/192/190
f 131/171/171 132/170/172 152/190/192 151/191/191
f 132/170/172 133/169/173 153/189/193 152/190/192
f 133/169/173 134/168/174 154/188/194 153/189/193
f 134/168/174 135/167/175 155/187/195 154/188/194
f 135/167/175 136/166/176 156/186/196 155/187/195
f 136/166/176 137/165/177 157/185/197 156/186/196
f 137/165/177 138/164/178 158/184/198 157/185/197
f 138/164/178 139/163/179 159/183/199 158/184/198
f 139/163/179 140/182/180 160/202/200 159/183/199
f 140/182/180 121/181/162 141/201/182 160/202/200
s 1
f 2/2/2 1/1/1 161/203/201
f 3/3/5 2/2/2 161/203/201
f 4/4/7 3/3/5 161/203/201
f 5/5/9 4/4/7 161/203/201
f 6/6/11 5/5/9 161/203/201
f 7/7/13 6/6/11 161/203/201
f 8/8/15 7/7/13 161/203/201
f 9/9/17 8/8/15 161/203/201
f 10/10/19 9/9/17 161/203/201
f 11/11/21 10/10/19 161/203/201
f 12/12/23 11/11/21 161/203/201
f 13/13/25 12/12/23 161/203/201
f 14/14/27 13/13/25 161/203/201
f 15/15/29 14/14/27 161/203/201
f 16/16/31 15/15/29 161/203/201
f 17/17/33 16/16/31 161/203/201
f 18/18/35 17/17/33 161/203/201
f 19/19/37 18/18/35 161/203/201
f 20/20/39 19/19/37 161/203/201
f 1/1/1 20/20/39 161/203/201
s 3
f 141/201/182 142/200/181 162/204/202
f 142/200/181 143/199/183 162/204/202
f 143/199/183 144/198/184 162/204/202
f 144/198/184 145/197/185 162/204/202
f 145/197/185 146/196/186 162/204/202
f 146/196/186 147/195/187 162/204/202
f 147/195/187 148/194/188 162/204/202
f 148/194/188 149/193/189 162/204/202
f 149/193/189 150/192/190 162/204/202
f 150/192/190 151/191/191 162/204/202
f 151/191/191 152/190/192 162/204/202
f 152/190/192 153/189/193 162/204/202
f 153/189/193 154/188/194 162/204/202
f 154/188/194 155/187/195 162/204/202
f 155/187/195 156/186/196 162/204/202
f 156/186/196 157/185/197 162/204/202
f 157/185/197 158/184/198 162/204/202
f 158/184/198 159/183/199 162/204/202
f 159/183/199 160/202/200 162/204/202
f 160/202/200 141/201/182 162/204/202
