# This file uses centimeters as units for non-parametric coordinates.

mtllib PlayButton.mtl
g default
v -2.241438 18.386494 -9.266488
v -2.241439 1.065985 -9.266488
v -1.483124 9.726239 -1.799200
v -2.588190 9.726239 11.346124
vt 0.375000 0.033494
vt 0.375000 0.466506
vt 0.750000 0.250000
vt 0.250000 0.500000
vt 0.416667 0.500000
vt 0.583333 0.500000
vt 0.750000 0.500000
vt 0.500000 1.000000
vn 0.994883 -0.000000 -0.101032
vn 0.994883 -0.000000 -0.101032
vn 0.994883 -0.000000 -0.101032
vn -0.999858 0.000000 -0.016820
vn -0.999858 0.000000 -0.016820
vn -0.999858 0.000000 -0.016820
vn 0.984049 -0.157495 0.082724
vn 0.984049 -0.157495 0.082724
vn 0.984049 -0.157495 0.082724
vn 0.984049 0.157495 0.082724
vn 0.984049 0.157495 0.082724
vn 0.984049 0.157495 0.082724
s off
g pCone1
usemtl initialShadingGroup
f 1/1/1 3/3/2 2/2/3
f 1/4/4 2/5/5 4/8/6
f 2/5/7 3/6/8 4/8/9
f 3/6/10 1/7/11 4/8/12
